<svg xmlns="http://www.w3.org/2000/svg" viewBox="0 0 64 64" role="img" aria-label="Miller Custom Works logo mark">
  <circle cx="48" cy="17" r="6" fill="none" stroke="#f0c36f" stroke-width="4" stroke-linecap="round"/>
  <path d="M5 44 22 18l12 14 8-11 18 28" fill="none" stroke="#fff0d4" stroke-width="5.5" stroke-linecap="round" stroke-linejoin="round"/>
  <path d="M7 50c10-4 20-4 31-1 8 2 15 1 19-2" fill="none" stroke="#f0c36f" stroke-width="4" stroke-linecap="round" stroke-linejoin="round"/>
  <path d="M19 43V24m0 0-8 10m8-10 8 10m-8-3-6 8m6-8 6 8M41 44V27m0 0-7 8m7-8 7 8m-7-2-5 7m5-7 5 7M53 44V30m0 0-6 7m6-7 6 7m-6-1-4 6m4-6 4 6" fill="none" stroke="#f0c36f" stroke-width="3.8" stroke-linecap="round" stroke-linejoin="round"/>
</svg>
